<svg width="32" height="32" viewBox="0 0 32 32" fill="none" xmlns="http://www.w3.org/2000/svg">
<path d="M4 0C2.93913 0 1.92172 0.421427 1.17157 1.17157C0.421427 1.92172 0 2.93913 0 4V28C0 29.0609 0.421427 30.0783 1.17157 30.8284C1.92172 31.5786 2.93913 32 4 32H28C29.0609 32 30.0783 31.5786 30.8284 30.8284C31.5786 30.0783 32 29.0609 32 28V4C32 2.93913 31.5786 1.92172 30.8284 1.17157C30.0783 0.421427 29.0609 0 28 0H4ZM5.33333 6.66667C5.33333 6.31304 5.47381 5.97391 5.72386 5.72386C5.97391 5.47381 6.31304 5.33333 6.66667 5.33333H11.1111C11.4647 5.33333 11.8039 5.47381 12.0539 5.72386C12.304 5.97391 12.4444 6.31304 12.4444 6.66667C12.4444 7.02029 12.304 7.35943 12.0539 7.60948C11.8039 7.85952 11.4647 8 11.1111 8H9.88445L12.9422 11.0578C13.0732 11.1798 13.1783 11.327 13.2512 11.4906C13.324 11.6542 13.3632 11.8307 13.3664 12.0097C13.3695 12.1888 13.3366 12.3666 13.2696 12.5326C13.2025 12.6986 13.1027 12.8495 12.9761 12.9761C12.8495 13.1027 12.6986 13.2025 12.5326 13.2696C12.3666 13.3366 12.1888 13.3695 12.0097 13.3664C11.8307 13.3632 11.6542 13.324 11.4906 13.2512C11.327 13.1783 11.1798 13.0732 11.0578 12.9422L8 9.88445V11.1129C8 11.4665 7.85952 11.8056 7.60948 12.0557C7.35943 12.3057 7.02029 12.4462 6.66667 12.4462C6.31304 12.4462 5.97391 12.3057 5.72386 12.0557C5.47381 11.8056 5.33333 11.4665 5.33333 11.1129V6.66667ZM26.2756 26.2773C26.0257 26.5275 25.6868 26.6681 25.3333 26.6684H20.8889C20.5353 26.6684 20.1961 26.528 19.9461 26.2779C19.696 26.0279 19.5556 25.6887 19.5556 25.3351C19.5556 24.9815 19.696 24.6424 19.9461 24.3923C20.1961 24.1423 20.5353 24.0018 20.8889 24.0018H22.1156L19.0578 20.944C18.8148 20.6926 18.6802 20.3559 18.6831 20.0063C18.686 19.6567 18.826 19.3222 19.0731 19.0749C19.3202 18.8276 19.6546 18.6872 20.0042 18.684C20.3538 18.6808 20.6906 18.815 20.9422 19.0578L24 22.1156V20.8889C24 20.5353 24.1405 20.1961 24.3905 19.9461C24.6406 19.696 24.9797 19.5556 25.3333 19.5556C25.687 19.5556 26.0261 19.696 26.2761 19.9461C26.5262 20.1961 26.6667 20.5353 26.6667 20.8889V25.3351C26.6664 25.6886 26.5257 26.0275 26.2756 26.2773ZM26.6667 6.66844V11.1129C26.6667 11.4665 26.5262 11.8056 26.2761 12.0557C26.0261 12.3057 25.687 12.4462 25.3333 12.4462C24.9797 12.4462 24.6406 12.3057 24.3905 12.0557C24.1405 11.8056 24 11.4665 24 11.1129V9.88622L20.9422 12.944C20.8192 13.0713 20.672 13.1728 20.5093 13.2426C20.3466 13.3124 20.1716 13.3491 19.9946 13.3505C19.8175 13.352 19.642 13.3182 19.4781 13.2511C19.3143 13.1839 19.1655 13.0849 19.0404 12.9596C18.9152 12.8344 18.8163 12.6855 18.7493 12.5216C18.6824 12.3577 18.6487 12.1821 18.6503 12.005C18.652 11.828 18.6888 11.6531 18.7588 11.4904C18.8287 11.3278 18.9304 11.1807 19.0578 11.0578L22.1156 8H20.8889C20.5353 8 20.1961 7.85952 19.9461 7.60948C19.696 7.35943 19.5556 7.02029 19.5556 6.66667C19.5556 6.31304 19.696 5.97391 19.9461 5.72386C20.1961 5.47381 20.5353 5.33333 20.8889 5.33333H25.3333C25.687 5.33333 26.0261 5.47381 26.2761 5.72386C26.5262 5.97391 26.6667 6.31482 26.6667 6.66844ZM5.72444 26.2756C5.47432 26.0257 5.33364 25.6868 5.33333 25.3333V20.8889C5.33333 20.5353 5.47381 20.1961 5.72386 19.9461C5.97391 19.696 6.31304 19.5556 6.66667 19.5556C7.02029 19.5556 7.35943 19.696 7.60948 19.9461C7.85952 20.1961 8 20.5353 8 20.8889V22.1138L11.0578 19.056C11.3105 18.8205 11.6448 18.6923 11.9903 18.6984C12.3357 18.7045 12.6653 18.8444 12.9095 19.0887C13.1538 19.333 13.2938 19.6625 13.2999 20.008C13.306 20.3534 13.1777 20.6877 12.9422 20.9404L9.88445 24H11.1129C11.4665 24 11.8056 24.1405 12.0557 24.3905C12.3057 24.6406 12.4462 24.9797 12.4462 25.3333C12.4462 25.687 12.3057 26.0261 12.0557 26.2761C11.8056 26.5262 11.4665 26.6667 11.1129 26.6667H6.66667C6.31316 26.6664 5.97425 26.5257 5.72444 26.2756Z" fill="#254982" fill-opacity="0.5"/>
</svg>
