<svg width="694" height="684" viewBox="0 0 694 684" fill="none" xmlns="http://www.w3.org/2000/svg">
<path d="M347.007 642.162C355.027 642.162 362.417 641.242 370.74 640.624L388.622 674.521C392.001 681.305 398.786 685 407.096 683.764C414.801 682.226 420.35 676.677 421.27 668.354L426.819 631.065C441.927 627.067 457.021 621.203 471.814 614.734L499.557 639.703C505.409 645.252 512.798 646.475 520.503 642.162C527.288 638.467 530.062 631.065 528.524 623.057L520.819 586.083C533.88 576.967 546.148 566.762 557.49 555.579L592.006 570.042C599.711 573.132 606.798 571.594 612.649 564.507C617.895 558.958 618.5 550.951 614.188 544.166L594.162 512.123C603.406 499.172 610.808 485.3 617.896 470.508L655.501 472.362C663.495 472.664 670.28 468.351 673.054 460.66C675.513 452.941 673.054 445.552 666.585 440.621L637.303 417.204C641.313 402.412 644.403 386.384 645.626 369.738L681.377 358.653C689.082 355.879 694 350.015 694 341.692C694 333.684 689.082 327.833 681.377 325.059L645.613 313.659C644.39 297.013 641.313 281.603 637.303 266.508L666.572 242.775C673.054 238.16 675.513 231.073 673.054 223.368C670.28 215.663 663.495 211.337 655.488 211.653L617.882 213.191C610.808 198.399 603.419 184.527 594.162 171.589L614.201 139.546C618.5 133.064 617.882 125.056 612.649 119.508C606.798 112.421 599.711 110.567 592.006 113.959L557.49 127.831C545.978 116.925 533.72 106.833 520.806 97.6286L528.524 60.9573C530.062 52.6343 527.288 45.2448 520.503 41.537C512.798 37.5398 505.409 38.1578 499.557 44.3113L471.814 68.6624C457.192 62.3157 442.16 56.9609 426.819 52.6343L421.27 15.3451C420.35 7.32448 414.801 1.48653 407.096 0.250567C398.773 -0.985395 392.001 2.40693 388.609 9.19157L370.727 43.0885C362.417 42.4705 355.014 41.8525 347.007 41.8525C338.683 41.8525 331.294 42.4705 322.655 43.0885L305.102 9.19157C301.709 2.40693 294.925 -0.985395 286.299 0.250567C278.594 1.48653 273.348 7.33763 272.125 15.3451L266.879 52.3319C251.542 56.7936 236.512 62.2486 221.884 68.6624L194.153 44.3113C187.987 38.1578 180.597 37.5398 173.194 41.5501C166.423 45.2317 163.648 52.6343 165.174 60.9573L172.892 97.6418C159.818 106.756 147.454 116.848 135.905 127.831L101.705 113.959C93.9998 110.567 86.5971 112.421 80.746 119.508C78.3529 122.167 76.9049 125.541 76.6267 129.108C76.3485 132.674 77.2558 136.233 79.2076 139.231L99.5486 171.602C90.3051 184.54 82.9024 198.425 75.8152 213.204L37.9076 211.666C29.8869 211.363 23.1154 215.676 20.6566 223.368C18.1846 231.086 20.341 238.173 26.8101 242.788L56.3946 266.522C52.3974 281.616 49.0051 297.026 48.0847 313.672L12.3203 325.072C4.32591 327.531 0 333.395 0 341.718C0 350.028 4.32591 355.892 12.3335 358.666L48.0847 370.066C49.0051 386.397 52.3975 402.412 56.4078 417.217L26.8233 440.621C20.341 445.552 18.1846 452.955 20.6434 460.646C23.1154 468.351 29.9001 472.664 37.9076 472.362L75.8152 470.521C82.9155 485.3 90.3051 499.185 99.233 512.11L79.51 544.166C74.8948 550.951 75.5128 558.958 80.746 564.507C86.5971 571.594 93.9998 573.132 101.705 570.055L135.905 555.566C147.318 566.966 159.954 577.129 172.892 586.07L165.187 623.057C163.648 631.078 166.423 638.467 173.207 642.162C180.899 646.475 188.302 645.239 194.153 639.703L221.581 614.734C236.374 621.203 251.468 627.067 266.879 631.065L272.125 668.354C273.348 676.677 278.594 682.226 286.299 683.764C294.925 685 301.709 681.305 305.102 674.521L322.655 640.624C330.978 641.242 338.697 642.162 347.007 642.162ZM424.36 322.284C409.87 283.457 381.522 262.196 346.086 262.196C340.84 262.196 334.686 262.814 324.825 264.957L236.374 113.959C269.351 97.6286 306.943 88.6876 347.007 88.6876C481.373 88.6876 586.759 190.694 596.318 322.284H424.36ZM96.7742 342.007C96.7742 256.331 137.141 180.833 200.938 135.233L289.994 287.152C273.348 304.416 265.656 323.205 265.656 343.243C265.656 362.65 273.045 380.532 289.994 398.401L198.782 547.558C136.523 501.63 96.7742 427.065 96.7742 342.007ZM309.099 342.928C309.099 321.982 326.981 305.638 346.704 305.638C367.65 305.638 384.914 321.982 384.914 342.928C384.914 363.571 367.65 380.532 346.704 380.532C326.981 380.532 309.099 363.571 309.099 342.928ZM347.007 595.327C306.022 595.327 267.812 585.768 234.217 569.135L324.812 420.898C334.371 423.37 340.853 423.975 346.086 423.975C381.824 423.975 410.186 402.096 424.36 362.348H596.305C586.444 493.307 481.057 595.327 347.007 595.327Z" fill="white" fill-opacity="0.07"/>
</svg>
