<svg width="18" height="18" viewBox="0 0 18 18" fill="none" xmlns="http://www.w3.org/2000/svg">
<path d="M5.0625 7.3125H6.1875V10.6875H5.0625V7.3125ZM11.8125 7.3125H12.9375V10.6875H11.8125V7.3125ZM7.3125 6.1875H8.4375V13.5H7.3125V6.1875ZM9.5625 5.0625H10.6875V12.375H9.5625V5.0625Z" fill="#254982"/>
<path d="M12.375 3.9375C12.9963 3.9375 13.5 3.43382 13.5 2.8125C13.5 2.19118 12.9963 1.6875 12.375 1.6875C11.7537 1.6875 11.25 2.19118 11.25 2.8125C11.25 3.43382 11.7537 3.9375 12.375 3.9375Z" fill="#254982"/>
<path d="M5.625 16.3125C6.24632 16.3125 6.75 15.8088 6.75 15.1875C6.75 14.5662 6.24632 14.0625 5.625 14.0625C5.00368 14.0625 4.5 14.5662 4.5 15.1875C4.5 15.8088 5.00368 16.3125 5.625 16.3125Z" fill="#254982"/>
<path d="M12.4268 15.75H7.875V14.625H12.4268L15.75 9L14.2313 6.4305L15.2004 5.85787L16.7192 8.42738C16.9273 8.78063 16.9273 9.21937 16.7192 9.57262L13.3948 15.1976C13.2949 15.3655 13.1532 15.5046 12.9836 15.6014C12.8139 15.6982 12.6221 15.7494 12.4268 15.75ZM2.79956 12.1421L1.28081 9.57262C1.17827 9.39922 1.12418 9.20146 1.12418 9C1.12418 8.79854 1.17827 8.60078 1.28081 8.42738L4.60519 2.80237C4.70514 2.63444 4.84691 2.49528 5.01667 2.39847C5.18643 2.30166 5.37839 2.25051 5.57381 2.25H10.125V3.375H5.57438L2.25 9L3.76875 11.5695L2.79956 12.1421Z" fill="#254982"/>
</svg>
