<svg width="18" height="18" viewBox="0 0 18 18" fill="none" xmlns="http://www.w3.org/2000/svg">
<path d="M10.125 6.1875H14.625V7.3125H10.125V6.1875ZM3.375 10.6875H7.875V11.8125H3.375V10.6875ZM5.625 9C5.17999 9 4.74498 8.86804 4.37497 8.62081C4.00496 8.37357 3.71657 8.02217 3.54627 7.61104C3.37597 7.19991 3.33142 6.74751 3.41823 6.31105C3.50505 5.87459 3.71934 5.47368 4.03401 5.15901C4.34868 4.84434 4.74959 4.63005 5.18605 4.54323C5.6225 4.45642 6.07491 4.50097 6.48604 4.67127C6.89717 4.84157 7.24857 5.12996 7.49581 5.49997C7.74304 5.86998 7.875 6.30499 7.875 6.75C7.87426 7.34651 7.63696 7.91837 7.21517 8.34017C6.79337 8.76196 6.22151 8.99926 5.625 9ZM5.625 5.625C5.4025 5.625 5.18499 5.69098 4.99998 5.8146C4.81498 5.93821 4.67078 6.11392 4.58564 6.31948C4.50049 6.52505 4.47821 6.75125 4.52162 6.96948C4.56503 7.18771 4.67217 7.38816 4.82951 7.5455C4.98684 7.70283 5.1873 7.80998 5.40552 7.85338C5.62375 7.89679 5.84995 7.87451 6.05552 7.78937C6.26109 7.70422 6.43679 7.56002 6.5604 7.37502C6.68402 7.19001 6.75 6.97251 6.75 6.75C6.75 6.45163 6.63147 6.16548 6.4205 5.95451C6.20952 5.74353 5.92337 5.625 5.625 5.625ZM12.375 13.5C11.93 13.5 11.495 13.368 11.125 13.1208C10.755 12.8736 10.4666 12.5222 10.2963 12.111C10.126 11.6999 10.0814 11.2475 10.1682 10.811C10.2551 10.3746 10.4693 9.97368 10.784 9.65901C11.0987 9.34434 11.4996 9.13005 11.936 9.04323C12.3725 8.95642 12.8249 9.00097 13.236 9.17127C13.6472 9.34157 13.9986 9.62996 14.2458 9.99997C14.493 10.37 14.625 10.805 14.625 11.25C14.6243 11.8465 14.387 12.4184 13.9652 12.8402C13.5434 13.262 12.9715 13.4993 12.375 13.5ZM12.375 10.125C12.1525 10.125 11.935 10.191 11.75 10.3146C11.565 10.4382 11.4208 10.6139 11.3356 10.8195C11.2505 11.025 11.2282 11.2512 11.2716 11.4695C11.315 11.6877 11.4222 11.8882 11.5795 12.0455C11.7368 12.2028 11.9373 12.31 12.1555 12.3534C12.3738 12.3968 12.6 12.3745 12.8055 12.2894C13.0111 12.2042 13.1868 12.06 13.3104 11.875C13.434 11.69 13.5 11.4725 13.5 11.25C13.5 10.9516 13.3815 10.6655 13.1705 10.4545C12.9595 10.2435 12.6734 10.125 12.375 10.125Z" fill="#254982"/>
<path d="M15.75 16.875H2.25C1.95163 16.875 1.66548 16.7565 1.4545 16.5455C1.24353 16.3345 1.125 16.0484 1.125 15.75V2.25C1.125 1.95163 1.24353 1.66548 1.4545 1.4545C1.66548 1.24353 1.95163 1.125 2.25 1.125H15.75C16.0484 1.125 16.3345 1.24353 16.5455 1.4545C16.7565 1.66548 16.875 1.95163 16.875 2.25V15.75C16.875 16.0484 16.7565 16.3345 16.5455 16.5455C16.3345 16.7565 16.0484 16.875 15.75 16.875ZM2.25 2.25V15.75H15.75V2.25H2.25Z" fill="#254982"/>
</svg>
