<svg width="18" height="18" viewBox="0 0 18 18" fill="none" xmlns="http://www.w3.org/2000/svg">
<path d="M5.0625 11.8125H1.6875C1.06706 11.8125 0.5625 11.308 0.5625 10.6875V7.31252C0.5625 6.69208 1.06706 6.18752 1.6875 6.18752H5.0625C5.68294 6.18752 6.1875 6.69208 6.1875 7.31252V10.6875C6.1875 11.308 5.68294 11.8125 5.0625 11.8125ZM1.6875 7.31252V10.6875H5.0625V7.31252H1.6875ZM9 16.875C8.79638 16.875 8.59462 16.8675 8.39475 16.8525C5.94675 16.6658 3.69225 15.3158 2.36306 13.2413L3.31088 12.6338C3.87572 13.5133 4.63616 14.2504 5.53287 14.7875C6.42957 15.3247 7.43827 15.6473 8.48025 15.7303C8.65163 15.7435 8.82487 15.75 9 15.75V16.875ZM12.9375 16.875L11.7562 16.3125C10.8 15.8625 10.125 14.85 10.125 13.7813V10.125H15.75V13.7813C15.75 14.85 15.1313 15.8625 14.1188 16.3125L12.9375 16.875ZM11.25 11.25V13.7813C11.25 14.4563 11.6438 15.0188 12.2063 15.3L12.9375 15.6375L13.6687 15.3C14.2312 15.0188 14.625 14.4 14.625 13.7813V11.25H11.25ZM15.3574 6.75002C15.6128 7.47114 15.75 8.22433 15.75 9.00002H16.875C16.875 8.22939 16.7631 7.47677 16.5465 6.75002H15.3574ZM15.1875 5.62502H13.5C12.8796 5.62502 12.375 5.12045 12.375 4.50002V2.81252C12.375 2.19208 12.8796 1.68752 13.5 1.68752H15.1875C15.8079 1.68752 16.3125 2.19208 16.3125 2.81252V4.50002C16.3125 5.12045 15.8079 5.62502 15.1875 5.62502ZM13.5 2.81252V4.50002H15.1875V2.81252H13.5ZM11.25 1.45352C10.5198 1.23575 9.76194 1.12509 9 1.12502C7.67721 1.12224 6.37518 1.45391 5.21493 2.08921C4.05467 2.72451 3.07385 3.64281 2.36363 4.75877L3.31088 5.36627C4.12959 4.07967 5.36113 3.1094 6.80361 2.61454C8.24609 2.11968 9.81389 2.12959 11.25 2.64264V1.45352Z" fill="#254982"/>
</svg>
