<svg width="18" height="18" viewBox="0 0 18 18" fill="none" xmlns="http://www.w3.org/2000/svg">
<path d="M18 6.1875H16.3125V2.8125C16.3125 2.19375 15.8062 1.6875 15.1875 1.6875H7.3125C6.69375 1.6875 6.1875 2.19375 6.1875 2.8125V5.0625H7.3125V2.8125H15.1875V10.6875H7.3125V8.4375H6.1875V10.6875C6.1875 11.3062 6.69375 11.8125 7.3125 11.8125H15.1875C15.8062 11.8125 16.3125 11.3062 16.3125 10.6875V7.3125H18V6.1875Z" fill="#254982"/>
<path d="M11.8125 9.5625V7.3125C11.8125 6.69375 11.3062 6.1875 10.6875 6.1875H2.8125C2.19375 6.1875 1.6875 6.69375 1.6875 7.3125V10.6875H0V11.8125H1.6875V15.1875C1.6875 15.8062 2.19375 16.3125 2.8125 16.3125H10.6875C11.3062 16.3125 11.8125 15.8062 11.8125 15.1875V12.9375H10.6875V15.1875H2.8125V7.3125H10.6875V9.5625H11.8125Z" fill="#254982"/>
</svg>
