<svg width="18" height="18" viewBox="0 0 18 18" fill="none" xmlns="http://www.w3.org/2000/svg">
<path d="M12.6613 7.13741L9.28631 5.14054C9.19956 5.08935 9.10065 5.0624 8.99992 5.0625C8.89919 5.0626 8.80034 5.08974 8.71369 5.1411L5.33869 7.13798C5.25461 7.18769 5.18494 7.25844 5.13651 7.34326C5.08808 7.42808 5.06257 7.52405 5.0625 7.62173V11.503C5.0625 11.7021 5.16769 11.886 5.33869 11.9867L8.71369 13.9836C8.80019 14.0355 8.89915 14.0628 9 14.0628C9.10085 14.0628 9.19981 14.0355 9.28631 13.9836L12.6613 11.9867C12.7454 11.937 12.8151 11.8663 12.8635 11.7814C12.9119 11.6966 12.9374 11.6006 12.9375 11.503V7.62173C12.9375 7.52396 12.9121 7.42787 12.8636 7.34294C12.8152 7.25802 12.7455 7.18718 12.6613 7.13741ZM11.8125 11.1824L9 12.8462L6.1875 11.1824V7.94235L9 6.27848L11.8125 7.94235V11.1824Z" fill="#254982"/>
<path d="M3.375 11.3535V6.22687L6.8625 4.16587L6.29044 3.19725L2.52619 5.42194C2.44203 5.4717 2.3723 5.54254 2.32387 5.62747C2.27544 5.7124 2.24998 5.80848 2.25 5.90625V11.3535C1.92211 11.4694 1.63805 11.6838 1.43667 11.9674C1.2353 12.2509 1.12644 12.5897 1.125 12.9375C1.125 13.8679 1.88212 14.625 2.8125 14.625C3.74288 14.625 4.5 13.8679 4.5 12.9375C4.49856 12.5897 4.3897 12.2509 4.18833 11.9674C3.98695 11.6838 3.70289 11.4694 3.375 11.3535ZM2.8125 13.5C2.66767 13.4935 2.53092 13.4314 2.43072 13.3266C2.33052 13.2219 2.2746 13.0825 2.2746 12.9375C2.2746 12.7925 2.33052 12.6531 2.43072 12.5484C2.53092 12.4436 2.66767 12.3815 2.8125 12.375C2.95733 12.3815 3.09408 12.4436 3.19428 12.5484C3.29448 12.6531 3.3504 12.7925 3.3504 12.9375C3.3504 13.0825 3.29448 13.2219 3.19428 13.3266C3.09408 13.4314 2.95733 13.4935 2.8125 13.5ZM15.1875 11.25C14.2571 11.25 13.5 12.0071 13.5 12.9375C13.5 13.1361 13.5405 13.3239 13.6041 13.5011L9 16.2214L5.39775 14.0929L4.82569 15.0615L8.71369 17.3587C8.80034 17.4101 8.89919 17.4373 8.99992 17.4373C9.10065 17.4374 9.19956 17.4105 9.28631 17.3593L14.3263 14.3809C14.5794 14.5322 14.8719 14.625 15.1875 14.625C16.1179 14.625 16.875 13.8679 16.875 12.9375C16.875 12.0071 16.1179 11.25 15.1875 11.25ZM15.1875 13.5C15.0427 13.4935 14.9059 13.4314 14.8057 13.3266C14.7055 13.2219 14.6496 13.0825 14.6496 12.9375C14.6496 12.7925 14.7055 12.6531 14.8057 12.5484C14.9059 12.4436 15.0427 12.3815 15.1875 12.375C15.3323 12.3815 15.4691 12.4436 15.5693 12.5484C15.6695 12.6531 15.7254 12.7925 15.7254 12.9375C15.7254 13.0825 15.6695 13.2219 15.5693 13.3266C15.4691 13.4314 15.3323 13.4935 15.1875 13.5ZM9 3.9375C9.41119 3.9375 9.783 3.78394 10.0761 3.53925L14.625 6.22744V10.125H15.75V5.90625C15.75 5.80848 15.7246 5.7124 15.6761 5.62747C15.6277 5.54254 15.558 5.4717 15.4738 5.42194L10.6549 2.57456C10.6759 2.46956 10.6868 2.36137 10.6875 2.25C10.6875 1.31962 9.93038 0.5625 9 0.5625C8.06962 0.5625 7.3125 1.31962 7.3125 2.25C7.3125 3.18038 8.06962 3.9375 9 3.9375ZM9 1.6875C9.11141 1.68739 9.22035 1.72033 9.31303 1.78216C9.40571 1.84399 9.47797 1.93192 9.52066 2.03483C9.56334 2.13774 9.57454 2.251 9.55283 2.36027C9.53113 2.46955 9.47749 2.56993 9.39871 2.64871C9.31993 2.72749 9.21955 2.78113 9.11027 2.80283C9.001 2.82454 8.88774 2.81334 8.78483 2.77066C8.68192 2.72797 8.59399 2.65571 8.53216 2.56303C8.47033 2.47035 8.43739 2.36141 8.4375 2.25C8.4375 1.9395 8.69006 1.6875 9 1.6875Z" fill="#254982"/>
</svg>
