<svg width="18" height="18" viewBox="0 0 18 18" fill="none" xmlns="http://www.w3.org/2000/svg">
<path d="M4.5 10.4625V9.5625H3.375V10.4625C3.37374 11.0095 3.48054 11.5513 3.68928 12.0569C3.89802 12.5625 4.20458 13.0219 4.59136 13.4086C4.97813 13.7954 5.4375 14.102 5.94309 14.3107C6.44868 14.5195 6.99052 14.6263 7.5375 14.625H8.4375V13.5H7.5375C7.13819 13.5015 6.74254 13.4239 6.37334 13.2718C6.00414 13.1197 5.6687 12.896 5.38635 12.6137C5.10399 12.3313 4.88031 11.9959 4.72819 11.6267C4.57606 11.2575 4.49851 10.8618 4.5 10.4625ZM15.75 10.125H11.25C10.9519 10.1259 10.6663 10.2447 10.4555 10.4555C10.2447 10.6663 10.1259 10.9519 10.125 11.25V15.75C10.1259 16.0481 10.2447 16.3337 10.4555 16.5445C10.6663 16.7553 10.9519 16.8741 11.25 16.875H15.75C16.0481 16.8741 16.3337 16.7553 16.5445 16.5445C16.7553 16.3337 16.8741 16.0481 16.875 15.75V11.25C16.8741 10.9519 16.7553 10.6663 16.5445 10.4555C16.3337 10.2447 16.0481 10.1259 15.75 10.125ZM11.25 15.75V11.25H15.75V15.75H11.25ZM13.5 7.5375V8.4375H14.625V7.5375C14.6263 6.99052 14.5195 6.44868 14.3107 5.94309C14.102 5.4375 13.7954 4.97813 13.4086 4.59136C13.0219 4.20458 12.5625 3.89802 12.0569 3.68928C11.5513 3.48054 11.0095 3.37374 10.4625 3.375H9.5625V4.5H10.4625C10.8618 4.49851 11.2575 4.57606 11.6267 4.72819C11.9959 4.88031 12.3313 5.10399 12.6137 5.38635C12.896 5.6687 13.1197 6.00414 13.2718 6.37334C13.4239 6.74254 13.5015 7.13819 13.5 7.5375ZM6.75 1.125H2.25C1.95191 1.12589 1.66627 1.2447 1.45549 1.45549C1.2447 1.66627 1.12589 1.95191 1.125 2.25V6.75C1.12589 7.04809 1.2447 7.33373 1.45549 7.54451C1.66627 7.7553 1.95191 7.87411 2.25 7.875H6.75C7.04809 7.87411 7.33373 7.7553 7.54451 7.54451C7.7553 7.33373 7.87411 7.04809 7.875 6.75V2.25C7.87411 1.95191 7.7553 1.66627 7.54451 1.45549C7.33373 1.2447 7.04809 1.12589 6.75 1.125ZM2.25 6.75V2.25H6.75V6.75H2.25Z" fill="#254982"/>
</svg>
