<svg width="18" height="18" viewBox="0 0 18 18" fill="none" xmlns="http://www.w3.org/2000/svg">
<path d="M3.9375 16.875C3.38124 16.875 2.83747 16.7101 2.37496 16.401C1.91245 16.092 1.55196 15.6527 1.33909 15.1388C1.12622 14.6249 1.07052 14.0594 1.17904 13.5138C1.28756 12.9682 1.55543 12.4671 1.94876 12.0738C2.3421 11.6804 2.84324 11.4126 3.38881 11.304C3.93438 11.1955 4.49988 11.2512 5.0138 11.4641C5.52772 11.677 5.96697 12.0374 6.27601 12.5C6.58505 12.9625 6.75 13.5062 6.75 14.0625C6.74911 14.8081 6.45251 15.523 5.92525 16.0503C5.398 16.5775 4.68315 16.8741 3.9375 16.875ZM3.9375 12.375C3.60375 12.375 3.27748 12.474 2.99998 12.6594C2.72247 12.8448 2.50618 13.1084 2.37845 13.4167C2.25073 13.7251 2.21731 14.0644 2.28243 14.3917C2.34754 14.7191 2.50826 15.0197 2.74426 15.2557C2.98026 15.4917 3.28094 15.6525 3.60829 15.7176C3.93563 15.7827 4.27493 15.7493 4.58328 15.6215C4.89163 15.4938 5.15518 15.2775 5.34061 15C5.52603 14.7225 5.625 14.3963 5.625 14.0625C5.62455 13.6151 5.44662 13.1861 5.13025 12.8698C4.81388 12.5534 4.38492 12.3754 3.9375 12.375Z" fill="#254982"/>
<path d="M13.5 14.625H7.875V13.5H13.5V9.5625H4.5C4.20163 9.5625 3.91548 9.44397 3.7045 9.233C3.49353 9.02202 3.375 8.73587 3.375 8.4375V4.5C3.375 4.20163 3.49353 3.91548 3.7045 3.7045C3.91548 3.49353 4.20163 3.375 4.5 3.375H10.125V4.5H4.5V8.4375H13.5C13.7984 8.4375 14.0845 8.55603 14.2955 8.767C14.5065 8.97798 14.625 9.26413 14.625 9.5625V13.5C14.625 13.7984 14.5065 14.0845 14.2955 14.2955C14.0845 14.5065 13.7984 14.625 13.5 14.625Z" fill="#254982"/>
<path d="M15.75 6.75H12.375C12.0766 6.75 11.7905 6.63147 11.5795 6.4205C11.3685 6.20952 11.25 5.92337 11.25 5.625V2.25C11.25 1.95163 11.3685 1.66548 11.5795 1.4545C11.7905 1.24353 12.0766 1.125 12.375 1.125H15.75C16.0484 1.125 16.3345 1.24353 16.5455 1.4545C16.7565 1.66548 16.875 1.95163 16.875 2.25V5.625C16.875 5.92337 16.7565 6.20952 16.5455 6.4205C16.3345 6.63147 16.0484 6.75 15.75 6.75ZM12.375 2.25V5.625H15.75V2.25H12.375Z" fill="#254982"/>
</svg>
