<svg width="18" height="18" viewBox="0 0 18 18" fill="none" xmlns="http://www.w3.org/2000/svg">
<path d="M13.5385 11.0769C13.0831 11.0769 12.6622 11.2098 12.2954 11.4258L11.0462 10.176L10.1754 11.0462L11.4258 12.296C11.1997 12.6712 11.0792 13.1004 11.0769 13.5385C11.0769 14.896 12.1809 16 13.5385 16C13.7575 16 13.9655 15.9625 14.168 15.9077L12.6683 14.4086C12.4375 14.1779 12.3078 13.8649 12.3077 13.5385C12.3083 13.2953 12.3809 13.0578 12.5162 12.8559C12.6516 12.6539 12.8436 12.4965 13.0683 12.4035C13.2929 12.3104 13.54 12.2859 13.7785 12.3331C14.017 12.3802 14.2363 12.4968 14.4086 12.6683L15.9083 14.168C15.966 13.963 15.9968 13.7514 16 13.5385C16 12.1809 14.8954 11.0769 13.5385 11.0769ZM11.0462 5.824L13.3625 3.50769C13.6031 3.62277 13.8695 3.69231 14.1538 3.69231C14.519 3.69231 14.8759 3.58403 15.1795 3.38118C15.4831 3.17832 15.7197 2.88999 15.8595 2.55265C15.9992 2.21531 16.0358 1.84411 15.9645 1.48599C15.8933 1.12787 15.7175 0.798916 15.4593 0.540727C15.2011 0.282538 14.8721 0.106708 14.514 0.0354742C14.1559 -0.0357601 13.7847 0.000799908 13.4474 0.140531C13.11 0.280262 12.8217 0.516888 12.6188 0.820486C12.416 1.12408 12.3077 1.48102 12.3077 1.84615C12.3077 2.13046 12.3772 2.39692 12.4923 2.63754L10.176 4.95385L11.0462 5.824ZM14.1538 1.23077C14.4929 1.23077 14.7692 1.50708 14.7692 1.84615C14.7692 2.18523 14.4929 2.46154 14.1538 2.46154C13.8148 2.46154 13.5385 2.18523 13.5385 1.84615C13.5385 1.50708 13.8148 1.23077 14.1538 1.23077ZM8 5.53846C7.34716 5.53846 6.72106 5.7978 6.25943 6.25943C5.7978 6.72106 5.53846 7.34716 5.53846 8C5.53846 8.45538 5.67077 8.87692 5.88677 9.24308L2.63754 12.4923C2.39073 12.3728 2.12039 12.3097 1.84615 12.3077C1.48102 12.3077 1.12408 12.416 0.820486 12.6188C0.516888 12.8217 0.280262 13.11 0.140531 13.4474C0.000799908 13.7847 -0.0357601 14.1559 0.0354742 14.514C0.106708 14.8721 0.282538 15.2011 0.540727 15.4593C0.798916 15.7175 1.12787 15.8933 1.48599 15.9645C1.84411 16.0358 2.21531 15.9992 2.55265 15.8595C2.88999 15.7197 3.17832 15.4831 3.38118 15.1795C3.58403 14.8759 3.69231 14.519 3.69231 14.1538C3.69231 13.8695 3.62277 13.6031 3.50769 13.3625L6.75692 10.1132C7.13244 10.339 7.56186 10.4593 8 10.4615C8.65284 10.4615 9.27894 10.2022 9.74057 9.74057C10.2022 9.27894 10.4615 8.65284 10.4615 8C10.4615 7.34716 10.2022 6.72106 9.74057 6.25943C9.27894 5.7978 8.65284 5.53846 8 5.53846ZM1.84615 14.7692C1.68771 14.7621 1.5381 14.6942 1.42848 14.5796C1.31886 14.4649 1.25768 14.3125 1.25768 14.1538C1.25768 13.9952 1.31886 13.8427 1.42848 13.7281C1.5381 13.6135 1.68771 13.5455 1.84615 13.5385C2.0046 13.5455 2.15421 13.6135 2.26383 13.7281C2.37345 13.8427 2.43463 13.9952 2.43463 14.1538C2.43463 14.3125 2.37345 14.4649 2.26383 14.5796C2.15421 14.6942 2.0046 14.7621 1.84615 14.7692ZM8 9.23077C7.32123 9.23077 6.76923 8.67877 6.76923 8C6.76923 7.32123 7.32123 6.76923 8 6.76923C8.67877 6.76923 9.23077 7.32123 9.23077 8C9.23077 8.67877 8.67877 9.23077 8 9.23077ZM2.46154 4.92308C2.91692 4.92308 3.33785 4.79077 3.70462 4.57415L4.95385 5.824L5.824 4.95385L4.57477 3.704C4.78954 3.33785 4.92308 2.91631 4.92308 2.46154C4.92308 1.104 3.81908 8.48959e-07 2.46154 8.48959e-07C2.24246 8.48959e-07 2.03446 0.0381548 1.832 0.0923086L3.33169 1.59139C3.50317 1.76374 3.61981 1.98297 3.66694 2.22149C3.71407 2.46 3.68958 2.70712 3.59655 2.93174C3.50352 3.15636 3.3461 3.34844 3.14413 3.48378C2.94216 3.61912 2.70466 3.69167 2.46154 3.69231C2.13515 3.69224 1.82215 3.56252 1.59139 3.33169L0.0916931 1.832C0.0340263 2.037 0.0032049 2.24861 8.48959e-07 2.46154C8.48959e-07 3.81908 1.104 4.92308 2.46154 4.92308Z" fill="#254982"/>
</svg>
