<svg width="18" height="18" viewBox="0 0 18 18" fill="none" xmlns="http://www.w3.org/2000/svg">
<path d="M16.875 13.5V12.375H15.6932C15.6202 12.023 15.4804 11.6883 15.2814 11.3889L16.1196 10.5508L15.3242 9.75544L14.4861 10.5936C14.1867 10.3946 13.852 10.2548 13.5 10.1818V9H12.375V10.1818C12.023 10.2548 11.6883 10.3946 11.3889 10.5936L10.5508 9.75544L9.75544 10.5508L10.5936 11.3889C10.3946 11.6883 10.2548 12.023 10.1818 12.375H9V13.5H10.1818C10.2544 13.8521 10.3944 14.1868 10.5936 14.4861L9.75544 15.3242L10.5508 16.1196L11.3889 15.2814C11.6883 15.4804 12.023 15.6202 12.375 15.6932V16.875H13.5V15.6932C13.852 15.6202 14.1867 15.4804 14.4861 15.2814L15.3242 16.1196L16.1196 15.3242L15.2814 14.4861C15.4804 14.1867 15.6202 13.852 15.6932 13.5H16.875ZM12.9375 14.625C12.4899 14.625 12.0607 14.4472 11.7443 14.1307C11.4278 13.8143 11.25 13.3851 11.25 12.9375C11.25 12.4899 11.4278 12.0607 11.7443 11.7443C12.0607 11.4278 12.4899 11.25 12.9375 11.25C13.3851 11.25 13.8143 11.4278 14.1307 11.7443C14.4472 12.0607 14.625 12.4899 14.625 12.9375C14.625 13.3851 14.4472 13.8143 14.1307 14.1307C13.8143 14.4472 13.3851 14.625 12.9375 14.625Z" fill="#254982"/>
<path d="M13.2182 5.11031L9.39769 1.28981C9.29222 1.18432 9.14917 1.12503 9 1.125H3.375C2.75625 1.125 2.25 1.63125 2.25 2.25V15.75C2.25 16.3687 2.75625 16.875 3.375 16.875H7.875V15.75H3.375V2.25H7.875V5.625C7.875 6.24544 8.37956 6.75 9 6.75H12.5392C12.9291 6.75 13.2772 6.51713 13.4263 6.15712C13.5759 5.79712 13.4938 5.3865 13.2182 5.11031ZM9 5.625V2.48287L12.1416 5.625H9Z" fill="#254982"/>
</svg>
