<svg width="22" height="22" viewBox="0 0 22 22" fill="none" xmlns="http://www.w3.org/2000/svg">
<path d="M2.75 0C2.02065 0 1.32118 0.289731 0.805456 0.805456C0.289731 1.32118 0 2.02065 0 2.75V19.25C0 19.9793 0.289731 20.6788 0.805456 21.1945C1.32118 21.7103 2.02065 22 2.75 22H19.25C19.9793 22 20.6788 21.7103 21.1945 21.1945C21.7103 20.6788 22 19.9793 22 19.25V2.75C22 2.02065 21.7103 1.32118 21.1945 0.805456C20.6788 0.289731 19.9793 0 19.25 0H2.75ZM3.66667 4.58333C3.66667 4.34022 3.76324 4.10706 3.93515 3.93515C4.10706 3.76324 4.34022 3.66667 4.58333 3.66667H7.63889C7.882 3.66667 8.11516 3.76324 8.28707 3.93515C8.45898 4.10706 8.55556 4.34022 8.55556 4.58333C8.55556 4.82645 8.45898 5.05961 8.28707 5.23151C8.11516 5.40342 7.882 5.5 7.63889 5.5H6.79556L8.89778 7.60222C8.98784 7.68614 9.06008 7.78734 9.11018 7.89979C9.16028 8.01223 9.18722 8.13361 9.18939 8.2567C9.19156 8.37978 9.16892 8.50203 9.12282 8.61618C9.07671 8.73032 9.00809 8.834 8.92105 8.92105C8.834 9.00809 8.73032 9.07671 8.61618 9.12282C8.50203 9.16892 8.37978 9.19156 8.2567 9.18939C8.13361 9.18722 8.01223 9.16028 7.89979 9.11018C7.78734 9.06008 7.68614 8.98784 7.60222 8.89778L5.5 6.79556V7.64011C5.5 7.88323 5.40342 8.11638 5.23151 8.28829C5.05961 8.4602 4.82645 8.55678 4.58333 8.55678C4.34022 8.55678 4.10706 8.4602 3.93515 8.28829C3.76324 8.11638 3.66667 7.88323 3.66667 7.64011V4.58333ZM18.0644 18.0657C17.8927 18.2376 17.6597 18.3343 17.4167 18.3346H14.3611C14.118 18.3346 13.8848 18.238 13.7129 18.0661C13.541 17.8942 13.4444 17.661 13.4444 17.4179C13.4444 17.1748 13.541 16.9416 13.7129 16.7697C13.8848 16.5978 14.118 16.5012 14.3611 16.5012H15.2044L13.1022 14.399C12.9352 14.2262 12.8427 13.9947 12.8446 13.7543C12.8466 13.514 12.9429 13.284 13.1128 13.114C13.2827 12.944 13.5125 12.8474 13.7529 12.8452C13.9932 12.843 14.2248 12.9353 14.3978 13.1022L16.5 15.2044V14.3611C16.5 14.118 16.5966 13.8848 16.7685 13.7129C16.9404 13.541 17.1736 13.4444 17.4167 13.4444C17.6598 13.4444 17.8929 13.541 18.0648 13.7129C18.2368 13.8848 18.3333 14.118 18.3333 14.3611V17.4179C18.3331 17.6609 18.2364 17.8939 18.0644 18.0657ZM18.3333 4.58456V7.64011C18.3333 7.88323 18.2368 8.11638 18.0648 8.28829C17.8929 8.4602 17.6598 8.55678 17.4167 8.55678C17.1736 8.55678 16.9404 8.4602 16.7685 8.28829C16.5966 8.11638 16.5 7.88323 16.5 7.64011V6.79678L14.3978 8.899C14.3132 8.98651 14.212 9.0563 14.1001 9.10428C13.9883 9.15227 13.868 9.1775 13.7463 9.1785C13.6246 9.1795 13.5039 9.15625 13.3912 9.11011C13.2786 9.06396 13.1763 8.99585 13.0902 8.90974C13.0042 8.82363 12.9362 8.72125 12.8902 8.60858C12.8441 8.4959 12.821 8.37518 12.8221 8.25347C12.8232 8.13176 12.8486 8.01149 12.8967 7.89967C12.9448 7.78786 13.0146 7.68674 13.1022 7.60222L15.2044 5.5H14.3611C14.118 5.5 13.8848 5.40342 13.7129 5.23151C13.541 5.05961 13.4444 4.82645 13.4444 4.58333C13.4444 4.34022 13.541 4.10706 13.7129 3.93515C13.8848 3.76324 14.118 3.66667 14.3611 3.66667H17.4167C17.6598 3.66667 17.8929 3.76324 18.0648 3.93515C18.2368 4.10706 18.3333 4.34144 18.3333 4.58456ZM3.93556 18.0644C3.7636 17.8927 3.66688 17.6597 3.66667 17.4167V14.3611C3.66667 14.118 3.76324 13.8848 3.93515 13.7129C4.10706 13.541 4.34022 13.4444 4.58333 13.4444C4.82645 13.4444 5.05961 13.541 5.23151 13.7129C5.40342 13.8848 5.5 14.118 5.5 14.3611V15.2032L7.60222 13.101C7.77599 12.9391 8.00583 12.8509 8.24331 12.8551C8.48078 12.8593 8.70737 12.9555 8.87532 13.1235C9.04326 13.2914 9.13947 13.518 9.14366 13.7555C9.14785 13.993 9.0597 14.2228 8.89778 14.3966L6.79556 16.5H7.64011C7.88323 16.5 8.11638 16.5966 8.28829 16.7685C8.4602 16.9404 8.55678 17.1736 8.55678 17.4167C8.55678 17.6598 8.4602 17.8929 8.28829 18.0648C8.11638 18.2368 7.88323 18.3333 7.64011 18.3333H4.58333C4.3403 18.3331 4.1073 18.2364 3.93556 18.0644Z" fill="#254982" fill-opacity="0.5"/>
</svg>
