<svg width="20" height="20" viewBox="0 0 20 20" fill="none" xmlns="http://www.w3.org/2000/svg">
<path d="M15.3125 0H4.6875C2.09867 0 0 2.09867 0 4.6875V15.3125C0 17.9013 2.09867 20 4.6875 20H15.3125C17.9013 20 20 17.9013 20 15.3125V4.6875C20 2.09867 17.9013 0 15.3125 0Z" fill="#222220" fill-opacity="0.6"/>
<path d="M3.25281 15.8623H5.73859V9.82539L2.1875 7.16211V14.797C2.1875 15.3865 2.66516 15.8623 3.25281 15.8623Z" fill="white"/>
<path d="M14.2612 15.8624H16.7471C17.3365 15.8624 17.8124 15.3848 17.8124 14.7971V7.16211L14.2612 9.82547" fill="white"/>
<path d="M14.2612 5.20904V9.82553L17.8124 7.16225V5.74162C17.8124 4.4242 16.3085 3.67311 15.2556 4.46326" fill="white"/>
<path d="M5.73877 9.82555V5.20914L10.0001 8.405L14.2614 5.20898V9.82547L10.0001 13.0216" fill="white"/>
<path d="M2.1875 5.74162V7.16209L5.73859 9.82545V5.20904L4.7443 4.46326C3.68961 3.67311 2.1875 4.4242 2.1875 5.74162Z" fill="white"/>
</svg>
