<svg width="20" height="14" viewBox="0 0 20 14" fill="none" xmlns="http://www.w3.org/2000/svg">
<path fill-rule="evenodd" clip-rule="evenodd" d="M17.8125 0.418262C18.675 0.648262 19.3512 1.32451 19.5812 2.18576C20 3.74451 20 6.99951 20 6.99951C20 6.99951 20 10.2545 19.5812 11.8133C19.4675 12.2371 19.2443 12.6236 18.9341 12.9341C18.6239 13.2445 18.2375 13.468 17.8138 13.582C16.255 14.0008 10 14.0008 10 14.0008C10 14.0008 3.745 14.0008 2.1875 13.582C1.76354 13.468 1.37698 13.2446 1.06655 12.9342C0.756123 12.6238 0.532728 12.2372 0.41875 11.8133C0 10.2545 0 7.00076 0 7.00076C0 7.00076 0 3.74451 0.41875 2.18576C0.53281 1.76218 0.756102 1.37598 1.06629 1.0658C1.37647 0.755614 1.76267 0.532322 2.18625 0.418262C3.745 -0.000488244 10 -0.000488281 10 -0.000488281C10 -0.000488281 16.255 -0.000488244 17.8125 0.418262ZM13.195 6.99951L7.9975 9.99951V3.99951L13.195 6.99951Z" fill="#222220" fill-opacity="0.6"/>
</svg>
