<svg width="28" height="28" viewBox="0 0 28 28" fill="none" xmlns="http://www.w3.org/2000/svg">
<path d="M19.6954 11.1026L14.4454 7.99639C14.3104 7.91677 14.1566 7.87485 13.9999 7.875C13.8432 7.87515 13.6894 7.91738 13.5546 7.99727L8.30463 11.1035C8.17384 11.1809 8.06545 11.2909 7.99012 11.4229C7.91479 11.5548 7.87512 11.7041 7.875 11.856V17.8935C7.875 18.2033 8.03863 18.4894 8.30463 18.646L13.5546 21.7523C13.6892 21.8329 13.8431 21.8755 14 21.8755C14.1569 21.8755 14.3108 21.8329 14.4454 21.7523L19.6954 18.646C19.8262 18.5687 19.9345 18.4586 20.0099 18.3267C20.0852 18.1947 20.1249 18.0455 20.125 17.8935V11.856C20.125 11.7039 20.0854 11.5545 20.0101 11.4224C19.9348 11.2902 19.8263 11.1801 19.6954 11.1026ZM18.375 17.3948L14 19.983L9.625 17.3948V12.3548L14 9.76652L18.375 12.3548V17.3948Z" fill="#254982"/>
<path d="M5.25 17.661V9.68625L10.675 6.48025L9.78512 4.9735L3.92963 8.43413C3.79872 8.51154 3.69025 8.62173 3.61491 8.75384C3.53957 8.88595 3.49996 9.03542 3.5 9.1875V17.661C2.98996 17.8413 2.54808 18.1748 2.23483 18.6159C1.92157 19.0569 1.75224 19.584 1.75 20.125C1.75 21.5723 2.92775 22.75 4.375 22.75C5.82225 22.75 7 21.5723 7 20.125C6.99776 19.584 6.82843 19.0569 6.51517 18.6159C6.20192 18.1748 5.76005 17.8413 5.25 17.661ZM4.375 21C4.14971 20.9899 3.93698 20.8933 3.78112 20.7303C3.62525 20.5674 3.53827 20.3505 3.53827 20.125C3.53827 19.8995 3.62525 19.6827 3.78112 19.5197C3.93698 19.3567 4.14971 19.2601 4.375 19.25C4.60029 19.2601 4.81302 19.3567 4.96888 19.5197C5.12475 19.6827 5.21173 19.8995 5.21173 20.125C5.21173 20.3505 5.12475 20.5674 4.96888 20.7303C4.81302 20.8933 4.60029 20.9899 4.375 21ZM23.625 17.5C22.1777 17.5 21 18.6778 21 20.125C21 20.4339 21.063 20.7261 21.1619 21.0018L14 25.2333L8.3965 21.9223L7.50663 23.429L13.5546 27.0025C13.6894 27.0824 13.8432 27.1246 13.9999 27.1248C14.1566 27.1249 14.3104 27.083 14.4454 27.0034L22.2854 22.3703C22.6791 22.6056 23.1341 22.75 23.625 22.75C25.0723 22.75 26.25 21.5723 26.25 20.125C26.25 18.6778 25.0723 17.5 23.625 17.5ZM23.625 21C23.3997 20.9899 23.187 20.8933 23.0311 20.7303C22.8753 20.5674 22.7883 20.3505 22.7883 20.125C22.7883 19.8995 22.8753 19.6827 23.0311 19.5197C23.187 19.3567 23.3997 19.2601 23.625 19.25C23.8503 19.2601 24.063 19.3567 24.2189 19.5197C24.3747 19.6827 24.4617 19.8995 24.4617 20.125C24.4617 20.3505 24.3747 20.5674 24.2189 20.7303C24.063 20.8933 23.8503 20.9899 23.625 21ZM14 6.125C14.6396 6.125 15.218 5.88613 15.6739 5.5055L22.75 9.68713V15.75H24.5V9.1875C24.5 9.03542 24.4604 8.88595 24.3851 8.75384C24.3098 8.62173 24.2013 8.51154 24.0704 8.43413L16.5742 4.00488C16.6069 3.84154 16.6238 3.67325 16.625 3.5C16.625 2.05275 15.4473 0.875 14 0.875C12.5527 0.875 11.375 2.05275 11.375 3.5C11.375 4.94725 12.5527 6.125 14 6.125ZM14 2.625C14.1733 2.62483 14.3428 2.67607 14.4869 2.77225C14.6311 2.86842 14.7435 3.00521 14.8099 3.16529C14.8763 3.32537 14.8937 3.50155 14.86 3.67154C14.8262 3.84152 14.7428 3.99767 14.6202 4.12021C14.4977 4.24276 14.3415 4.32619 14.1715 4.35996C14.0015 4.39373 13.8254 4.37631 13.6653 4.30991C13.5052 4.24351 13.3684 4.13111 13.2722 3.98694C13.1761 3.84277 13.1248 3.67331 13.125 3.5C13.125 3.017 13.5179 2.625 14 2.625Z" fill="#254982"/>
</svg>
