<svg width="28" height="28" viewBox="0 0 28 28" fill="none" xmlns="http://www.w3.org/2000/svg">
<path d="M13.9996 1.75C13.7676 1.75 13.545 1.84219 13.3809 2.00628C13.2168 2.17038 13.1246 2.39294 13.1246 2.625V8.82875C12.3477 8.9673 11.6119 9.27924 10.9721 9.74138L6.85789 5.62713C6.73784 5.50637 6.59478 5.41092 6.43719 5.34643C6.27959 5.28195 6.11066 5.24973 5.94039 5.25169C5.77013 5.25364 5.60198 5.28974 5.44591 5.35783C5.28984 5.42593 5.14901 5.52464 5.03177 5.64812C3.73111 7.04991 2.77539 8.73578 2.24058 10.5717C1.70578 12.4077 1.60663 14.3431 1.95102 16.224C2.29541 18.105 3.07384 19.8797 4.22444 21.4071C5.37504 22.9345 6.86608 24.1724 8.57902 25.0224C9.11079 25.2976 9.66707 25.5225 10.2406 25.6944C12.3218 26.3495 14.5394 26.441 16.6674 25.9595C18.7954 25.4781 20.7577 24.441 22.3541 22.9539C22.4771 22.8385 22.5755 22.6995 22.6435 22.5453C22.7115 22.391 22.7477 22.2246 22.75 22.0561C22.7523 21.8875 22.7206 21.7202 22.6568 21.5642C22.593 21.4081 22.4984 21.2665 22.3786 21.1479L18.267 17.0362C18.7272 16.3931 19.0362 15.6543 19.1709 14.875H25.3746C25.6067 14.875 25.8293 14.7828 25.9934 14.6187C26.1575 14.4546 26.2496 14.2321 26.2496 14C26.2459 10.7522 24.9541 7.63855 22.6576 5.34203C20.3611 3.04552 17.2474 1.75371 13.9996 1.75ZM13.9996 10.5C14.6919 10.5 15.3686 10.7053 15.9441 11.0899C16.5197 11.4744 16.9683 12.0211 17.2332 12.6606C17.4981 13.3001 17.5674 14.0039 17.4324 14.6828C17.2973 15.3617 16.964 15.9854 16.4745 16.4749C15.985 16.9644 15.3614 17.2977 14.6825 17.4327C14.0035 17.5678 13.2998 17.4985 12.6603 17.2336C12.0207 16.9687 11.4741 16.5201 11.0895 15.9445C10.7049 15.3689 10.4996 14.6922 10.4996 14C10.5008 13.0721 10.8699 12.1825 11.5261 11.5264C12.1822 10.8703 13.0717 10.5012 13.9996 10.5ZM5.97589 7.21963L9.7349 10.9786C9.09633 11.8592 8.75168 12.9186 8.74995 14.0063C8.74822 15.094 9.08951 16.1546 9.72527 17.0371L5.98289 20.7795C4.38231 18.8833 3.50371 16.4823 3.50243 14.0008C3.50115 11.5194 4.37727 9.11747 5.97589 7.21963ZM7.22102 22.0159L10.9625 18.2744C11.606 18.7333 12.3453 19.04 13.1246 19.1712V24.458C10.9493 24.2841 8.88386 23.43 7.22102 22.0168V22.0159ZM14.8746 24.4615V19.1712C15.6505 19.0369 16.3861 18.7298 17.0271 18.2726L20.7748 22.0194C19.1124 23.4313 17.0486 24.2855 14.8746 24.4615ZM19.1709 13.125C18.9873 12.0524 18.4755 11.0631 17.706 10.2936C16.9365 9.52415 15.9473 9.01233 14.8746 8.82875V3.53587C17.3474 3.74602 19.6662 4.82379 21.421 6.5786C23.1759 8.33342 24.2536 10.6522 24.4638 13.125H19.1709Z" fill="#254982"/>
</svg>
