<svg width="28" height="29" viewBox="0 0 28 29" fill="none" xmlns="http://www.w3.org/2000/svg">
<path d="M24.5 11.5H17.5V4.5H24.5V11.5ZM19.25 9.75H22.75V6.25H19.25V9.75Z" fill="#254982"/>
<path d="M14.875 14.125V8.875H7.875V21.125H20.125V14.125H14.875ZM9.625 10.625H13.125V14.125H9.625V10.625ZM13.125 19.375H9.625V15.875H13.125V19.375ZM18.375 19.375H14.875V15.875H18.375V19.375Z" fill="#254982"/>
<path d="M22.75 25.5H5.25C4.78587 25.5 4.34075 25.3156 4.01256 24.9874C3.68437 24.6592 3.5 24.2141 3.5 23.75V6.25C3.5 5.78587 3.68437 5.34075 4.01256 5.01256C4.34075 4.68437 4.78587 4.5 5.25 4.5H14V6.25H5.25V23.75H22.75V15H24.5V23.75C24.5 24.2141 24.3156 24.6592 23.9874 24.9874C23.6592 25.3156 23.2141 25.5 22.75 25.5Z" fill="#254982"/>
</svg>
