<svg width="28" height="28" viewBox="0 0 28 28" fill="none" xmlns="http://www.w3.org/2000/svg">
<path d="M24.5 10.5C25.4665 10.5 26.25 9.7165 26.25 8.75C26.25 7.7835 25.4665 7 24.5 7C23.5335 7 22.75 7.7835 22.75 8.75C22.75 9.7165 23.5335 10.5 24.5 10.5Z" fill="#254982"/>
<path d="M15.75 25.375H9.625V23.625H15.75C20.0926 23.625 23.625 20.0926 23.625 15.75V12.25H25.375V15.75C25.375 21.0569 21.0569 25.375 15.75 25.375Z" fill="#254982"/>
<path d="M14 18.375C11.5876 18.375 9.625 16.4124 9.625 14C9.625 11.5876 11.5876 9.625 14 9.625C16.4124 9.625 18.375 11.5876 18.375 14C18.375 16.4124 16.4124 18.375 14 18.375ZM14 11.375C12.5527 11.375 11.375 12.5527 11.375 14C11.375 15.4472 12.5527 16.625 14 16.625C15.4472 16.625 16.625 15.4472 16.625 14C16.625 12.5527 15.4472 11.375 14 11.375Z" fill="#254982"/>
<path d="M3.5 21C4.4665 21 5.25 20.2165 5.25 19.25C5.25 18.2835 4.4665 17.5 3.5 17.5C2.5335 17.5 1.75 18.2835 1.75 19.25C1.75 20.2165 2.5335 21 3.5 21Z" fill="#254982"/>
<path d="M4.375 15.75H2.625V12.25C2.625 6.94312 6.94312 2.625 12.25 2.625H18.375V4.375H12.25C7.90738 4.375 4.375 7.90738 4.375 12.25V15.75Z" fill="#254982"/>
</svg>
