<svg width="28" height="28" viewBox="0 0 28 28" fill="none" xmlns="http://www.w3.org/2000/svg">
<path d="M7 16.275V14.875H5.25V16.275C5.24804 17.1259 5.41418 17.9687 5.73889 18.7552C6.06359 19.5417 6.54046 20.2562 7.14211 20.8579C7.74376 21.4595 8.45834 21.9364 9.24481 22.2611C10.0313 22.5858 10.8741 22.752 11.725 22.75H13.125V21H11.725C11.1039 21.0023 10.4884 20.8817 9.91409 20.645C9.33978 20.4084 8.81798 20.0605 8.37876 19.6212C7.93954 19.182 7.59159 18.6602 7.35496 18.0859C7.11832 17.5116 6.99769 16.8961 7 16.275ZM24.5 15.75H17.5C17.0363 15.7514 16.592 15.9362 16.2641 16.2641C15.9362 16.592 15.7514 17.0363 15.75 17.5V24.5C15.7514 24.9637 15.9362 25.408 16.2641 25.7359C16.592 26.0638 17.0363 26.2486 17.5 26.25H24.5C24.9637 26.2486 25.408 26.0638 25.7359 25.7359C26.0638 25.408 26.2486 24.9637 26.25 24.5V17.5C26.2486 17.0363 26.0638 16.592 25.7359 16.2641C25.408 15.9362 24.9637 15.7514 24.5 15.75ZM17.5 24.5V17.5H24.5V24.5H17.5ZM21 11.725V13.125H22.75V11.725C22.752 10.8741 22.5858 10.0313 22.2611 9.24481C21.9364 8.45834 21.4595 7.74376 20.8579 7.14211C20.2562 6.54046 19.5417 6.06359 18.7552 5.73889C17.9687 5.41418 17.1259 5.24804 16.275 5.25H14.875V7H16.275C16.8961 6.99769 17.5116 7.11832 18.0859 7.35496C18.6602 7.59159 19.182 7.93954 19.6212 8.37876C20.0605 8.81798 20.4084 9.33978 20.645 9.91409C20.8817 10.4884 21.0023 11.1039 21 11.725ZM10.5 1.75H3.5C3.0363 1.75138 2.59198 1.9362 2.26409 2.26409C1.9362 2.59198 1.75138 3.0363 1.75 3.5V10.5C1.75138 10.9637 1.9362 11.408 2.26409 11.7359C2.59198 12.0638 3.0363 12.2486 3.5 12.25H10.5C10.9637 12.2486 11.408 12.0638 11.7359 11.7359C12.0638 11.408 12.2486 10.9637 12.25 10.5V3.5C12.2486 3.0363 12.0638 2.59198 11.7359 2.26409C11.408 1.9362 10.9637 1.75138 10.5 1.75ZM3.5 10.5V3.5H10.5V10.5H3.5Z" fill="#254982"/>
</svg>
