<svg width="28" height="28" viewBox="0 0 28 28" fill="none" xmlns="http://www.w3.org/2000/svg">
<path d="M16.184 23.9627L14 25.2367L4.375 19.6228V14.5022L13.139 9.38963C13.3945 9.53488 13.6859 9.625 14 9.625C14.3461 9.625 14.6845 9.52236 14.9722 9.33007C15.26 9.13778 15.4843 8.86447 15.6168 8.5447C15.7492 8.22493 15.7839 7.87306 15.7164 7.53359C15.6489 7.19413 15.4822 6.88231 15.2374 6.63756C14.9927 6.39282 14.6809 6.22615 14.3414 6.15863C14.0019 6.0911 13.6501 6.12576 13.3303 6.25821C13.0105 6.39066 12.7372 6.61497 12.5449 6.90275C12.3526 7.19054 12.25 7.52888 12.25 7.875L12.2509 7.882L3.059 13.244C2.92689 13.3211 2.8173 13.4315 2.74115 13.5641C2.665 13.6968 2.62495 13.847 2.625 14V20.125C2.625 20.4356 2.79038 20.7244 3.059 20.881L13.559 27.006C13.6928 27.0841 13.845 27.1253 14 27.1253C14.155 27.1253 14.3072 27.0841 14.441 27.006L17.066 25.4748L16.184 23.9627Z" fill="#254982"/>
<path d="M24.941 7.11914L22.316 5.58789L21.434 7.09989L23.625 8.37739V19.6229L19.6061 21.967L10.4983 16.6356L10.5 16.6251C10.5 16.279 10.3974 15.9407 10.2051 15.6529C10.0128 15.3651 9.73947 15.1408 9.4197 15.0084C9.09993 14.8759 8.74806 14.8412 8.40859 14.9088C8.06913 14.9763 7.75731 15.143 7.51256 15.3877C7.26782 15.6324 7.10115 15.9443 7.03363 16.2837C6.9661 16.6232 7.00076 16.9751 7.13321 17.2948C7.26566 17.6146 7.48997 17.8879 7.77775 18.0802C8.06554 18.2725 8.40388 18.3751 8.75 18.3751C9.06325 18.3751 9.35375 18.2859 9.60838 18.1415L19.1634 23.7354C19.2972 23.8138 19.4496 23.8552 19.6047 23.8553C19.7598 23.8555 19.9122 23.8144 20.0463 23.7363L24.941 20.8811C25.2096 20.7245 25.375 20.4358 25.375 20.1251V7.87514C25.375 7.56452 25.2096 7.27577 24.941 7.11914Z" fill="#254982"/>
<path d="M20.125 15.1176V4.81276C20.125 4.50213 19.9596 4.21338 19.691 4.05676L14.441 0.994259C14.3072 0.916156 14.155 0.875 14 0.875C13.845 0.875 13.6928 0.916156 13.559 0.994259L3.059 7.11926C2.92689 7.19635 2.8173 7.30672 2.74115 7.43937C2.665 7.57201 2.62495 7.72231 2.625 7.87526V10.4994H4.375V8.37751L14 2.76263L18.375 5.31501V15.1176C17.8544 15.4213 17.5 15.9786 17.5 16.6253C17.5 17.0894 17.6844 17.5345 18.0126 17.8627C18.3408 18.1909 18.7859 18.3753 19.25 18.3753C19.7141 18.3753 20.1592 18.1909 20.4874 17.8627C20.8156 17.5345 21 17.0894 21 16.6253C21 15.9795 20.6456 15.4213 20.125 15.1176Z" fill="#254982"/>
</svg>
