<svg width="28" height="28" viewBox="0 0 28 28" fill="none" xmlns="http://www.w3.org/2000/svg">
<path d="M7.875 19.25C8.8415 19.25 9.625 18.4665 9.625 17.5C9.625 16.5335 8.8415 15.75 7.875 15.75C6.9085 15.75 6.125 16.5335 6.125 17.5C6.125 18.4665 6.9085 19.25 7.875 19.25Z" fill="#254982"/>
<path d="M14 17.5C13.3078 17.5 12.6311 17.2947 12.0555 16.9101C11.4799 16.5256 11.0313 15.9789 10.7664 15.3394C10.5015 14.6999 10.4322 13.9961 10.5673 13.3172C10.7023 12.6383 11.0356 12.0146 11.5251 11.5251C12.0146 11.0356 12.6383 10.7023 13.3172 10.5673C13.9961 10.4322 14.6999 10.5015 15.3394 10.7664C15.9789 11.0313 16.5256 11.4799 16.9101 12.0555C17.2947 12.6311 17.5 13.3078 17.5 14C17.4977 14.9275 17.1282 15.8164 16.4723 16.4723C15.8164 17.1282 14.9275 17.4977 14 17.5ZM14 12.25C13.6539 12.25 13.3155 12.3526 13.0278 12.5449C12.74 12.7372 12.5157 13.0105 12.3832 13.3303C12.2508 13.6501 12.2161 14.0019 12.2836 14.3414C12.3512 14.6809 12.5178 14.9927 12.7626 15.2374C13.0073 15.4822 13.3191 15.6489 13.6586 15.7164C13.9981 15.7839 14.3499 15.7492 14.6697 15.6168C14.9895 15.4843 15.2628 15.26 15.4551 14.9723C15.6474 14.6845 15.75 14.3461 15.75 14C15.7486 13.5363 15.5638 13.092 15.2359 12.7641C14.908 12.4362 14.4637 12.2514 14 12.25Z" fill="#254982"/>
<path d="M20.125 12.25C21.0915 12.25 21.875 11.4665 21.875 10.5C21.875 9.5335 21.0915 8.75 20.125 8.75C19.1585 8.75 18.375 9.5335 18.375 10.5C18.375 11.4665 19.1585 12.25 20.125 12.25Z" fill="#254982"/>
<path d="M14.875 25.375C14.7081 25.3751 14.5442 25.3367 14.4001 25.2639L3.09238 19.5473C2.95012 19.4754 2.8321 19.3724 2.75009 19.2486C2.66808 19.1248 2.62495 18.9845 2.625 18.8417V7.40851C2.62495 7.26576 2.66808 7.12548 2.75009 7.00168C2.8321 6.87788 2.95012 6.77487 3.09238 6.70292L14.4001 0.986308C14.5442 0.913412 14.7081 0.875 14.875 0.875C15.0419 0.875 15.2058 0.913412 15.3499 0.986308L26.6576 6.70292L25.7078 8.1141L14.875 2.63759L4.50962 7.87727V18.373L14.875 23.6135L25.2404 18.373V12.3085H27.125V18.8417C27.125 18.9845 27.0819 19.1248 26.9999 19.2486C26.9179 19.3724 26.7999 19.4754 26.6576 19.5473L15.3499 25.2639C15.2058 25.3367 15.0419 25.3751 14.875 25.375Z" fill="#254982"/>
</svg>
