<svg width="28" height="28" viewBox="0 0 28 28" fill="none" xmlns="http://www.w3.org/2000/svg">
<path d="M22.7497 5.24973C21.9759 5.25203 21.2247 5.51098 20.6138 5.98601C20.0029 6.46104 19.5669 7.1253 19.374 7.87473H15.6885C15.5253 6.57551 15.0008 5.34815 14.1747 4.33224C13.3486 3.31633 12.2539 2.55265 11.0152 2.12805C9.77656 1.70345 8.4436 1.63497 7.16794 1.93041C5.89228 2.22584 4.72513 2.87333 3.79923 3.79923C2.87333 4.72513 2.22584 5.89228 1.93041 7.16794C1.63497 8.4436 1.70345 9.77656 2.12805 11.0152C2.55265 12.2539 3.31633 13.3486 4.33224 14.1747C5.34815 15.0008 6.57551 15.5253 7.87473 15.6885V19.374C7.0499 19.5869 6.33106 20.0934 5.85295 20.7985C5.37484 21.5035 5.17028 22.3588 5.27762 23.2038C5.38496 24.0489 5.79683 24.8259 6.43602 25.389C7.07522 25.9521 7.89785 26.2628 8.74973 26.2628C9.6016 26.2628 10.4242 25.9521 11.0634 25.389C11.7026 24.8259 12.1145 24.0489 12.2218 23.2038C12.3292 22.3588 12.1246 21.5035 11.6465 20.7985C11.1684 20.0934 10.4496 19.5869 9.62473 19.374V15.6894C10.8686 15.5328 12.0471 15.0431 13.0355 14.2719L16.2459 17.4831C15.9243 18.0165 15.7529 18.6269 15.7497 19.2497C15.7497 19.942 15.955 20.6186 16.3396 21.1942C16.7242 21.7698 17.2708 22.2184 17.9103 22.4833C18.5499 22.7482 19.2536 22.8175 19.9325 22.6825C20.6115 22.5474 21.2351 22.2141 21.7246 21.7246C22.2141 21.2351 22.5474 20.6115 22.6825 19.9325C22.8175 19.2536 22.7482 18.5499 22.4833 17.9103C22.2184 17.2708 21.7698 16.7242 21.1942 16.3396C20.6187 15.955 19.942 15.7497 19.2497 15.7497C18.6269 15.7529 18.0165 15.9243 17.4831 16.2458L14.2719 13.0346C15.0432 12.0465 15.5333 10.8684 15.6902 9.62473H19.3749C19.5396 10.257 19.8784 10.8304 20.3527 11.2798C20.827 11.7292 21.4178 12.0366 22.0581 12.1671C22.6983 12.2976 23.3623 12.2459 23.9746 12.018C24.587 11.79 25.1231 11.395 25.5222 10.8776C25.9213 10.3603 26.1673 9.74137 26.2323 9.09122C26.2973 8.44107 26.1787 7.78571 25.89 7.19958C25.6012 6.61345 25.1539 6.12004 24.5988 5.77537C24.0437 5.4307 23.4031 5.24859 22.7497 5.24973ZM10.4997 22.7497C10.4997 23.0958 10.3971 23.4342 10.2048 23.722C10.0125 24.0098 9.73919 24.2341 9.41942 24.3665C9.09965 24.499 8.74779 24.5336 8.40832 24.4661C8.06885 24.3986 7.75703 24.2319 7.51229 23.9872C7.26755 23.7424 7.10088 23.4306 7.03335 23.0911C6.96583 22.7517 7.00048 22.3998 7.13294 22.08C7.26539 21.7603 7.48969 21.4869 7.77748 21.2947C8.06526 21.1024 8.40361 20.9997 8.74973 20.9997C9.21386 20.9997 9.65897 21.1841 9.98716 21.5123C10.3154 21.8405 10.4997 22.2856 10.4997 22.7497ZM8.74973 13.9997C7.71137 13.9997 6.69634 13.6918 5.83298 13.1149C4.96962 12.5381 4.29672 11.7181 3.89936 10.7588C3.502 9.7995 3.39803 8.7439 3.6006 7.7255C3.80318 6.7071 4.30319 5.77164 5.03742 5.03742C5.77164 4.30319 6.7071 3.80318 7.7255 3.6006C8.7439 3.39803 9.7995 3.502 10.7588 3.89936C11.7181 4.29672 12.5381 4.96962 13.1149 5.83298C13.6918 6.69634 13.9997 7.71137 13.9997 8.74973C13.9981 10.1416 13.4445 11.476 12.4602 12.4602C11.476 13.4445 10.1416 13.9981 8.74973 13.9997ZM20.9997 19.2497C20.9997 19.5958 20.8971 19.9342 20.7048 20.222C20.5125 20.5098 20.2392 20.7341 19.9194 20.8665C19.5997 20.999 19.2478 21.0336 18.9083 20.9661C18.5689 20.8986 18.257 20.7319 18.0123 20.4872C17.7675 20.2424 17.6009 19.9306 17.5334 19.5911C17.4658 19.2517 17.5005 18.8998 17.6329 18.58C17.7654 18.2603 17.9897 17.9869 18.2775 17.7947C18.5653 17.6024 18.9036 17.4997 19.2497 17.4997C19.7139 17.4997 20.159 17.6841 20.4872 18.0123C20.8154 18.3405 20.9997 18.7856 20.9997 19.2497ZM22.7497 10.4997C22.4036 10.4997 22.0653 10.3971 21.7775 10.2048C21.4897 10.0125 21.2654 9.73919 21.1329 9.41942C21.0005 9.09965 20.9658 8.74778 21.0334 8.40832C21.1009 8.06885 21.2675 7.75703 21.5123 7.51229C21.757 7.26755 22.0689 7.10088 22.4083 7.03335C22.7478 6.96583 23.0997 7.00048 23.4194 7.13294C23.7392 7.26539 24.0125 7.48969 24.2048 7.77748C24.3971 8.06526 24.4997 8.40361 24.4997 8.74973C24.4997 9.21385 24.3154 9.65897 23.9872 9.98716C23.659 10.3154 23.2139 10.4997 22.7497 10.4997Z" fill="#254982"/>
</svg>
