<svg width="28" height="28" viewBox="0 0 28 28" fill="none" xmlns="http://www.w3.org/2000/svg">
<path d="M3.5 21C4.4665 21 5.25 20.2165 5.25 19.25C5.25 18.2835 4.4665 17.5 3.5 17.5C2.5335 17.5 1.75 18.2835 1.75 19.25C1.75 20.2165 2.5335 21 3.5 21Z" fill="#254982"/>
<path d="M11.8126 26.25C10.49 26.2479 9.18687 25.9312 8.01081 25.3262C6.83475 24.7211 5.81948 23.845 5.04883 22.7701L6.47158 21.7516C7.0798 22.6007 7.88143 23.2929 8.81017 23.7708C9.73891 24.2487 10.7681 24.4987 11.8126 24.5C15.2855 24.5 18.1633 21.7875 18.3637 18.3242L20.1111 18.4257C19.8573 22.813 16.2112 26.25 11.8126 26.25Z" fill="#254982"/>
<path d="M24.5 21.875C25.4665 21.875 26.25 21.0915 26.25 20.125C26.25 19.1585 25.4665 18.375 24.5 18.375C23.5335 18.375 22.75 19.1585 22.75 20.125C22.75 21.0915 23.5335 21.875 24.5 21.875Z" fill="#254982"/>
<path d="M26.8109 16.7082L25.1274 16.2313C25.2924 15.6477 25.3757 15.044 25.375 14.4375C25.375 10.8194 22.4315 7.87503 18.8125 7.87503C17.8806 7.87171 16.9589 8.06959 16.1105 8.45516L15.3895 6.86091C16.4645 6.37279 17.6319 6.12182 18.8125 6.12503C23.3958 6.12503 27.125 9.85428 27.125 14.4375C27.125 15.2075 27.02 15.9723 26.8109 16.7082ZM17.8622 12.7619L15.2372 10.1369C14.9074 9.80791 14.4672 9.62503 14 9.62503C13.5328 9.62503 13.0926 9.80703 12.7628 10.1378L10.1378 12.7628C9.7965 13.104 9.625 13.552 9.625 14C9.625 14.448 9.7965 14.896 10.1378 15.2373L12.7628 17.8623C13.0926 18.193 13.5328 18.375 14 18.375C14.4672 18.375 14.9074 18.193 15.2372 17.8623L17.8622 15.2373C18.2035 14.896 18.375 14.448 18.375 14C18.375 13.552 18.2035 13.104 17.8622 12.7628M14 16.625L11.375 14L14 11.375L16.625 14L14 16.625Z" fill="#254982"/>
<path d="M14 4.375C14.9665 4.375 15.75 3.5915 15.75 2.625C15.75 1.6585 14.9665 0.875 14 0.875C13.0335 0.875 12.25 1.6585 12.25 2.625C12.25 3.5915 13.0335 4.375 14 4.375Z" fill="#254982"/>
<path d="M7.02188 17.3964C5.69268 16.6877 4.5813 15.6308 3.80677 14.3388C3.03224 13.0468 2.62373 11.5685 2.625 10.0622C2.625 5.66355 6.062 2.0183 10.4493 1.76367L10.5508 3.51105C9.12337 3.59627 7.76285 4.14525 6.67605 5.07452C5.58925 6.00379 4.8356 7.26252 4.5297 8.65934C4.22379 10.0562 4.38236 11.5147 4.9813 12.8131C5.58023 14.1116 6.58677 15.1789 7.84788 15.8529L7.02188 17.3964Z" fill="#254982"/>
</svg>
