<svg width="28" height="28" viewBox="0 0 28 28" fill="none" xmlns="http://www.w3.org/2000/svg">
<path d="M19.25 21H15.75V19.25H19.25V15.75H21V19.25C21 19.7141 20.8156 20.1592 20.4874 20.4874C20.1592 20.8156 19.7141 21 19.25 21ZM8.75 12.25H7V8.75C7 8.28587 7.18437 7.84075 7.51256 7.51256C7.84075 7.18437 8.28587 7 8.75 7H12.25V8.75H8.75V12.25Z" fill="#254982"/>
<path d="M24.5 7H21V3.5C21 3.03587 20.8156 2.59075 20.4874 2.26256C20.1592 1.93437 19.7141 1.75 19.25 1.75H3.5C3.03587 1.75 2.59075 1.93437 2.26256 2.26256C1.93437 2.59075 1.75 3.03587 1.75 3.5V19.25C1.75 19.7141 1.93437 20.1592 2.26256 20.4874C2.59075 20.8156 3.03587 21 3.5 21H7V24.5C7 24.9641 7.18437 25.4092 7.51256 25.7374C7.84075 26.0656 8.28587 26.25 8.75 26.25H24.5C24.9641 26.25 25.4092 26.0656 25.7374 25.7374C26.0656 25.4092 26.25 24.9641 26.25 24.5V8.75C26.25 8.28587 26.0656 7.84075 25.7374 7.51256C25.4092 7.18437 24.9641 7 24.5 7ZM24.5 24.5H8.75V21H12.25V19.25H8.75V15.75H7V19.25H3.5V3.5H19.25V7H15.75V8.75H19.25V12.25H21V8.75H24.5V24.5Z" fill="#254982"/>
</svg>
