<svg width="23" height="23" viewBox="0 0 23 23" fill="none" xmlns="http://www.w3.org/2000/svg">
<path d="M10.5 2.625H21.875V4.375H10.5V2.625ZM10.5 18.375H21.875V20.125H10.5V18.375ZM0.875001 10.5H12.25V12.25H0.875001V10.5ZM3.5 7C2.80777 7 2.13108 6.79473 1.55551 6.41015C0.979934 6.02556 0.53133 5.47894 0.266423 4.83939C0.00151649 4.19985 -0.0677952 3.49612 0.0672531 2.81719C0.202301 2.13825 0.535644 1.51461 1.02513 1.02513C1.51461 0.535644 2.13825 0.202301 2.81719 0.0672531C3.49612 -0.0677952 4.19985 0.00151649 4.83939 0.266423C5.47894 0.53133 6.02556 0.979934 6.41015 1.55551C6.79473 2.13108 7 2.80777 7 3.5C7 4.42826 6.63125 5.3185 5.97488 5.97488C5.3185 6.63125 4.42826 7 3.5 7ZM3.5 1.75C3.15388 1.75 2.81554 1.85264 2.52775 2.04493C2.23997 2.23722 2.01567 2.51053 1.88321 2.83031C1.75076 3.15008 1.7161 3.50194 1.78363 3.84141C1.85115 4.18088 2.01782 4.4927 2.26256 4.73744C2.50731 4.98218 2.81913 5.14885 3.15859 5.21638C3.49806 5.2839 3.84993 5.24924 4.1697 5.11679C4.48947 4.98434 4.76278 4.76004 4.95507 4.47225C5.14737 4.18446 5.25 3.84612 5.25 3.5C5.25 3.03587 5.06563 2.59075 4.73744 2.26256C4.40925 1.93438 3.96413 1.75 3.5 1.75ZM3.5 22.75C2.80777 22.75 2.13108 22.5447 1.55551 22.1601C0.979934 21.7756 0.53133 21.2289 0.266423 20.5894C0.00151649 19.9499 -0.0677952 19.2461 0.0672531 18.5672C0.202301 17.8883 0.535644 17.2646 1.02513 16.7751C1.51461 16.2856 2.13825 15.9523 2.81719 15.8173C3.49612 15.6822 4.19985 15.7515 4.83939 16.0164C5.47894 16.2813 6.02556 16.7299 6.41015 17.3055C6.79473 17.8811 7 18.5578 7 19.25C7 20.1783 6.63125 21.0685 5.97488 21.7249C5.3185 22.3813 4.42826 22.75 3.5 22.75ZM3.5 17.5C3.15388 17.5 2.81554 17.6026 2.52775 17.7949C2.23997 17.9872 2.01567 18.2605 1.88321 18.5803C1.75076 18.9001 1.7161 19.2519 1.78363 19.5914C1.85115 19.9309 2.01782 20.2427 2.26256 20.4874C2.50731 20.7322 2.81913 20.8989 3.15859 20.9664C3.49806 21.0339 3.84993 20.9992 4.1697 20.8668C4.48947 20.7343 4.76278 20.51 4.95507 20.2222C5.14737 19.9345 5.25 19.5961 5.25 19.25C5.25 18.7859 5.06563 18.3408 4.73744 18.0126C4.40925 17.6844 3.96413 17.5 3.5 17.5ZM19.25 14.875C18.5578 14.875 17.8811 14.6697 17.3055 14.2851C16.7299 13.9006 16.2813 13.3539 16.0164 12.7144C15.7515 12.0749 15.6822 11.3711 15.8173 10.6922C15.9523 10.0133 16.2856 9.38961 16.7751 8.90013C17.2646 8.41064 17.8883 8.0773 18.5672 7.94225C19.2461 7.8072 19.9499 7.87652 20.5894 8.14142C21.2289 8.40633 21.7756 8.85493 22.1601 9.43051C22.5447 10.0061 22.75 10.6828 22.75 11.375C22.75 12.3033 22.3813 13.1935 21.7249 13.8499C21.0685 14.5063 20.1783 14.875 19.25 14.875ZM19.25 9.625C18.9039 9.625 18.5655 9.72764 18.2778 9.91993C17.99 10.1122 17.7657 10.3855 17.6332 10.7053C17.5008 11.0251 17.4661 11.3769 17.5336 11.7164C17.6012 12.0559 17.7678 12.3677 18.0126 12.6124C18.2573 12.8572 18.5691 13.0239 18.9086 13.0914C19.2481 13.1589 19.5999 13.1242 19.9197 12.9918C20.2395 12.8593 20.5128 12.635 20.7051 12.3472C20.8974 12.0595 21 11.7211 21 11.375C21 10.9109 20.8156 10.4658 20.4874 10.1376C20.1593 9.80938 19.7141 9.625 19.25 9.625Z" fill="#254982"/>
</svg>
