<svg width="28" height="28" viewBox="0 0 28 28" fill="none" xmlns="http://www.w3.org/2000/svg">
<path d="M7.875 11.375H9.625V16.625H7.875V11.375ZM18.375 11.375H20.125V16.625H18.375V11.375ZM11.375 9.625H13.125V21H11.375V9.625ZM14.875 7.875H16.625V19.25H14.875V7.875Z" fill="#254982"/>
<path d="M19.25 6.125C20.2165 6.125 21 5.3415 21 4.375C21 3.4085 20.2165 2.625 19.25 2.625C18.2835 2.625 17.5 3.4085 17.5 4.375C17.5 5.3415 18.2835 6.125 19.25 6.125Z" fill="#254982"/>
<path d="M8.75 25.375C9.7165 25.375 10.5 24.5915 10.5 23.625C10.5 22.6585 9.7165 21.875 8.75 21.875C7.7835 21.875 7 22.6585 7 23.625C7 24.5915 7.7835 25.375 8.75 25.375Z" fill="#254982"/>
<path d="M19.3298 24.5H12.2493V22.75H19.3298L24.4993 14L22.1368 10.003L23.6445 9.11225L26.007 13.1093C26.3307 13.6588 26.3307 14.3412 26.007 14.8907L20.8357 23.6407C20.6803 23.9019 20.4599 24.1182 20.196 24.2688C19.9321 24.4194 19.6337 24.4991 19.3298 24.5ZM4.35421 18.8878L1.99171 14.8907C1.8322 14.621 1.74805 14.3134 1.74805 14C1.74805 13.6866 1.8322 13.379 1.99171 13.1093L7.16296 4.35925C7.31843 4.09802 7.53896 3.88155 7.80304 3.73096C8.06711 3.58036 8.36571 3.50079 8.66971 3.5H15.7493V5.25H8.67058L3.49933 14L5.86183 17.997L4.35421 18.8878Z" fill="#254982"/>
</svg>
